<svg id="Ebene_1" data-name="Ebene 1" xmlns="http://www.w3.org/2000/svg" viewBox="0 0 511.21 120.01"><defs><style>.cls-1{fill:#fff;}</style></defs><title>909stories</title><path class="cls-1" d="M206.16,49.52L203.79,13c-0.38-5.85-3.53-13-16.34-13h-53.7c-12.81,0-14.28,7.1-13.26,13l1.93,11.13c1,5.6,4.67,12.17,16.89,12.17h49.79l1,11.21c0.06,0.64,0,.74-0.72.74H126.58l2.2,12.69h63.82C204.41,60.9,206.49,54.75,206.16,49.52ZM187.26,15.2l0.65,7.47H139.48c-0.71,0-.83-0.1-0.94-0.79l-1-6.68c-0.11-.7,0-0.81.7-0.81h48.13C187.09,14.39,187.2,14.5,187.26,15.2Z"/><path class="cls-1" d="M228.71,60.9h49.53c11.82,0,14.63-6.14,14.91-11.38l2-36.57c0.32-5.85-2-13-14.81-13H226.6c-12.81,0-15.12,7.1-14.8,13l2,36.57C214.08,54.75,216.89,60.9,228.71,60.9Zm0.94-13.43L228.59,15.2c0-.7.08-0.81,0.8-0.81h48.13c0.72,0,.82.11,0.8,0.81l-1,32.26c0,0.64-.13.74-0.81,0.74h-46C229.78,48.21,229.67,48.11,229.65,47.46Z"/><path class="cls-1" d="M380.13,49.52L386.44,13c1-5.85-.46-13-13.27-13h-53.7c-12.81,0-16,7.1-16.34,13l-0.72,11.13c-0.36,5.6,1.78,12.17,14,12.17h49.79l-1.69,11.21c-0.1.64-.21,0.74-0.9,0.74H300.87L300.05,60.9h63.82C375.69,60.9,379.23,54.75,380.13,49.52ZM369.39,15.2l-1.13,7.47H319.83c-0.71,0-.81-0.1-0.75-0.79l0.57-6.68c0.06-.7.18-0.81,0.89-0.81h48.13C369.4,14.39,369.49,14.5,369.39,15.2Z"/><path class="cls-1" d="M0.78,79.82l2,5.6c1.55,4.32,7.77,7.66,19,10.25l45.82,10.6a2.32,2.32,0,0,1,1.63,1.57,1.17,1.17,0,0,1-.64,1.49H11.37L15.2,120h58.6c10.85,0,11.83-5.17,10.73-9.58l-1.3-5.21c-1-4.12-6.84-7.39-17.8-10L18.8,84.31A2.7,2.7,0,0,1,17,82.63,1.22,1.22,0,0,1,17.54,81H77.15l-3-12H11C-0.64,69-1,74.94.78,79.82Z"/><polygon class="cls-1" points="81.45 81.02 111.8 81.02 119.68 120.01 134.08 120.01 127.04 81.02 157.39 81.02 155.75 69.04 78.51 69.04 81.45 81.02"/><path class="cls-1" d="M223.2,69h-49c-11.68,0-13.36,5.9-12.71,10.78l4,30.62c0.58,4.4,3.54,9.58,14.39,9.58h45.47c10.85,0,13-5.17,12.9-9.58L237.6,79.82C237.48,74.94,234.89,69,223.2,69ZM222.42,81.7l1.23,27c0,0.54-.07.62-0.69,0.62H180.77c-0.63,0-.73-0.08-0.79-0.62l-3-27c-0.06-.59,0-0.67.68-0.67h44C222.29,81,222.39,81.11,222.42,81.7Z"/><path class="cls-1" d="M317.44,94.74c1.53-1.12,2.42-3,2.67-5.63L321,79.82C321.46,74.94,319.56,69,307.88,69h-63.1l0.16,12h60c0.66,0,.75.09,0.7,0.67l-0.41,5.57c0,0.58-.15.66-0.79,0.66H245L245.46,120h14.39L260,99.3h43.55c0.64,0,.73.08,0.69,0.64L305.92,120h14.42l-1.24-20.15A6.26,6.26,0,0,0,317.44,94.74Z"/><polygon class="cls-1" points="323.26 120.01 337.65 120.01 344 69.04 328.5 69.04 323.26 120.01"/><path class="cls-1" d="M347.88,79.82l-4,30.62c-0.58,4.4,1,9.58,11.86,9.58h58.6l2.56-10.68H359.33c-0.63,0-.71-0.08-0.63-0.62l1.45-9.41h59.12L422,87.94H361.9l1-6.24c0.09-.59.2-0.67,0.86-0.67h60l2.88-12h-63.1C351.75,69,348.52,74.94,347.88,79.82Z"/><path class="cls-1" d="M447.3,81h59.61l4.3-12h-63.1c-11.68,0-15.62,5.9-16.84,10.78l-1.4,5.6c-1.08,4.32,3.1,7.66,12.73,10.25L482,106.27a1.16,1.16,0,0,1,.68,1.57,2.41,2.41,0,0,1-1.55,1.49H423.88L421.2,120h58.6c10.85,0,15-5.17,16.56-9.58l1.87-5.21c1.48-4.12-2.34-7.39-11.73-10L446.56,84.31a1.3,1.3,0,0,1-.79-1.68A2.39,2.39,0,0,1,447.3,81Z"/></svg>