<svg id="Ebene_1" data-name="Ebene 1" xmlns="http://www.w3.org/2000/svg" viewBox="0 0 45.73 88.58"><defs><style>.cls-1{fill:none;}.cls-1,.cls-2,.cls-3,.cls-4,.cls-5{stroke:#1d1d1b;stroke-miterlimit:10;}.cls-2{fill:#b1b1b1;}.cls-3{fill:#fff;}.cls-4{fill:#6f6f6e;}.cls-5{fill:#3c3c3b;}</style></defs><title>synth_left</title><line class="cls-1" x1="1.06" y1="80.34" x2="0.48" y2="76.69"/><polygon class="cls-2" points="43.41 78.34 26.61 87.81 11.55 87.81 27.54 78.29 43.41 78.34"/><polygon class="cls-3" points="0.58 76.2 0.48 76.26 0.48 78.2 26.93 78.2 27.04 76.18 0.58 76.2"/><polygon class="cls-2" points="0.48 78.2 0.48 87.81 10.3 87.81 25.92 78.2 0.48 78.2"/><polygon class="cls-4" points="0.54 0.76 0.48 76.69 27.04 76.65 26.43 0.76 0.54 0.76"/><polygon class="cls-3" points="29.89 0.76 29.7 77.34 44.66 77.34 44.72 0.76 29.89 0.76"/><polygon class="cls-5" points="26.29 0.76 27.24 78.2 29.7 78.2 29.89 0.76 26.29 0.76"/></svg>