<svg id="Ebene_1" data-name="Ebene 1" xmlns="http://www.w3.org/2000/svg" viewBox="0 0 560.1 260.13"><defs><style>.cls-1{fill:#b1b1b1;}.cls-1,.cls-10,.cls-12,.cls-13,.cls-2,.cls-3,.cls-4,.cls-5,.cls-6,.cls-7,.cls-8,.cls-9{stroke:#1d1d1b;stroke-miterlimit:10;}.cls-2{fill:#3c3c3b;}.cls-3{fill:#fff;}.cls-4{fill:none;}.cls-11,.cls-5{fill:#6f6f6e;}.cls-6{fill:#575756;}.cls-14,.cls-15,.cls-16,.cls-17,.cls-18,.cls-19,.cls-20,.cls-21,.cls-7{fill:#1d1d1b;}.cls-8{fill:#868686;}.cls-9{fill:#c6c6c5;}.cls-10{fill:#9c9b9b;}.cls-12{fill:#d9d9d9;}.cls-13{fill:#f5f5f5;}.cls-14{font-size:4.5px;}.cls-14,.cls-15,.cls-16,.cls-17,.cls-18,.cls-19,.cls-20,.cls-21{font-family:TR-909;}.cls-15{font-size:4.24px;}.cls-16{font-size:4.6px;}.cls-17{font-size:4.52px;}.cls-18{font-size:4.49px;}.cls-19{font-size:4.55px;}.cls-20{font-size:4.57px;}.cls-21{font-size:6.83px;}</style></defs><title>Synth</title><polygon class="cls-1" points="527.47 257.83 32.47 257.83 16.47 215.67 97.81 215.67 105.47 238.67 511.47 238.67 519.47 215.67 543.47 215.67 527.47 257.83"/><polygon class="cls-2" points="543.47 215.67 512.81 215.67 507.81 228.67 107.47 228.67 103.14 215.67 16.47 215.67 54.81 135.31 505.14 135.31 543.47 215.67"/><polygon class="cls-3" points="16.47 215.67 20.64 206.94 101.14 206.94 108.81 228.67 507.81 228.67 515.47 207.04 539.31 206.94 543.47 215.67 519.47 215.67 511.47 238.67 105.47 238.67 97.81 215.67 16.47 215.67"/><line class="cls-4" x1="101.14" y1="206.94" x2="97.81" y2="215.67"/><line class="cls-4" x1="105.47" y1="238.67" x2="108.81" y2="228.67"/><line class="cls-4" x1="519.47" y1="215.67" x2="515.47" y2="207.04"/><line class="cls-4" x1="511.47" y1="238.67" x2="507.81" y2="228.67"/><polygon class="cls-3" points="306 220.81 269.21 220.81 274.34 136.45 305.93 136.45 306 220.81"/><polygon class="cls-3" points="306 220.81 269.21 220.81 269.45 224.33 306.09 224.33 306 220.81"/><polygon class="cls-3" points="264.8 220.81 228.01 220.81 238.96 136.45 270.55 136.45 264.8 220.81"/><polygon class="cls-3" points="264.8 220.81 228.01 220.81 228.42 224.33 265.06 224.33 264.8 220.81"/><polygon class="cls-3" points="222.97 220.81 186.18 220.81 203.03 136.45 234.63 136.45 222.97 220.81"/><polygon class="cls-3" points="222.97 220.81 186.18 220.81 186.76 224.33 223.4 224.33 222.97 220.81"/><polygon class="cls-3" points="181.61 220.81 144.82 220.81 167.51 136.45 199.11 136.45 181.61 220.81"/><polygon class="cls-3" points="181.61 220.81 144.82 220.81 145.57 224.33 182.21 224.33 181.61 220.81"/><polygon class="cls-3" points="140.26 220.81 103.47 220.81 132 136.45 163.59 136.45 140.26 220.81"/><polygon class="cls-3" points="140.26 220.81 103.47 220.81 104.38 224.33 141.03 224.33 140.26 220.81"/><polygon class="cls-3" points="512.77 220.81 475.97 220.81 451.9 136.45 483.5 136.45 512.77 220.81"/><polygon class="cls-3" points="470.93 220.81 434.14 220.81 415.98 136.45 447.57 136.45 470.93 220.81"/><polygon class="cls-3" points="429.58 220.81 392.78 220.81 380.46 136.45 412.06 136.45 429.58 220.81"/><polygon class="cls-3" points="388.22 220.81 351.43 220.81 344.94 136.45 376.54 136.45 388.22 220.81"/><polygon class="cls-3" points="347.1 220.81 310.31 220.81 309.63 136.45 341.23 136.45 347.1 220.81"/><polygon class="cls-3" points="512.76 220.81 475.97 220.81 475.37 224.33 512.01 224.33 512.76 220.81"/><polygon class="cls-3" points="470.93 220.81 434.14 220.81 433.71 224.33 470.35 224.33 470.93 220.81"/><polygon class="cls-3" points="429.58 220.81 392.78 220.81 392.52 224.33 429.16 224.33 429.58 220.81"/><polygon class="cls-3" points="388.22 220.81 351.43 220.81 351.33 224.33 387.98 224.33 388.22 220.81"/><polygon class="cls-3" points="347.1 220.81 310.31 220.81 310.38 224.33 347.02 224.33 347.1 220.81"/><polygon class="cls-5" points="127.22 135.31 54.81 135.31 20.64 206.94 101.14 206.94 127.22 135.31"/><line class="cls-4" x1="108.81" y1="228.67" x2="110.31" y2="224.33"/><line class="cls-4" x1="507.81" y1="228.67" x2="506.22" y2="224.33"/><polygon class="cls-5" points="486.22 135.31 506.81 135.31 539.31 206.94 515.47 207.04 486.22 135.31"/><rect class="cls-6" x="54.81" y="128.83" width="451.83" height="6.47"/><polygon class="cls-2" points="318.4 175.19 297.21 175.19 297.87 136.45 317.82 136.45 318.4 175.19"/><polygon class="cls-7" points="318.4 175.19 297.21 175.19 297.16 183.5 318.45 183.5 318.4 175.19"/><polygon class="cls-2" points="279.02 175.19 257.82 175.19 260.79 136.45 280.75 136.45 279.02 175.19"/><polygon class="cls-7" points="279.02 175.19 257.82 175.19 257.59 183.5 278.89 183.5 279.02 175.19"/><polygon class="cls-2" points="358.08 175.19 336.88 175.19 335.21 136.45 355.17 136.45 358.08 175.19"/><polygon class="cls-7" points="358.08 175.19 336.88 175.19 337 183.5 358.3 183.5 358.08 175.19"/><polygon class="cls-2" points="164.3 175.19 143.1 175.19 154.54 136.45 174.5 136.45 164.3 175.19"/><polygon class="cls-7" points="164.3 175.19 143.1 175.19 144.23 183.5 165.53 183.5 164.3 175.19"/><polygon class="cls-2" points="165.69 181.24 177.97 136.94 174.5 136.45 164.3 175.19 165.69 181.24"/><polygon class="cls-2" points="204.18 175.19 182.98 175.19 192.09 136.45 212.05 136.45 204.18 175.19"/><polygon class="cls-7" points="204.18 175.19 182.98 175.19 184.3 183.5 205.59 183.5 204.18 175.19"/><polygon class="cls-2" points="205.71 181.24 215.59 136.94 212.05 136.45 204.18 175.19 205.71 181.24"/><polygon class="cls-2" points="413.14 175.19 434.33 175.19 425.2 136.45 405.25 136.45 413.14 175.19"/><polygon class="cls-7" points="413.14 175.19 434.33 175.19 433.02 183.5 411.73 183.5 413.14 175.19"/><polygon class="cls-2" points="411.61 181.24 401.7 136.94 405.25 136.45 413.14 175.19 411.61 181.24"/><polygon class="cls-2" points="451.45 175.19 472.65 175.19 461.28 136.45 441.32 136.45 451.45 175.19"/><polygon class="cls-7" points="451.45 175.19 472.65 175.19 471.51 183.5 450.22 183.5 451.45 175.19"/><polygon class="cls-2" points="450.08 181.83 437.85 136.94 441.32 136.45 451.45 175.19 450.08 181.83"/><polygon class="cls-5" points="474.04 5.17 87.41 5.17 54.81 128.83 506.64 128.83 474.04 5.17"/><polygon class="cls-3" points="87.41 5.17 88.81 0.5 76.47 0.5 32.81 151.17 0.81 215.67 14.47 215.67 44.61 151.5 87.41 5.17"/><polygon class="cls-1" points="0.81 215.67 14.72 259.42 29.47 259.42 14.47 215.67 0.81 215.67"/><polygon class="cls-2" points="32.47 257.83 29.47 259.42 14.47 215.67 44.61 151.5 87.41 5.17 54.81 128.83 54.81 135.31 20.64 206.94 16.47 215.67 32.47 257.83"/><polygon class="cls-3" points="474.08 5.21 472.81 0.55 485.02 0.55 528.68 151.21 559.31 215.67 545.64 215.67 516.88 151.55 474.08 5.21"/><polygon class="cls-1" points="559.31 215.67 544.39 259.42 530.64 259.42 545.64 215.67 559.31 215.67"/><polygon class="cls-2" points="527.64 257.83 530.64 259.42 545.64 215.67 516.88 151.55 474.08 5.21 506.69 128.88 506.69 135.35 539.48 206.94 543.64 215.67 527.64 257.83"/><path class="cls-4" d="M119.55,9.94H95a6.12,6.12,0,0,0-5.57,4.47L67.1,101.94c-0.79,3.11.81,5.64,3.58,5.64H98.49c2.77,0,5.54-2.54,6.2-5.64L123,14.41A3.5,3.5,0,0,0,119.55,9.94Z" transform="translate(0.81 0.5)"/><path class="cls-4" d="M150.19,9.94H131a5.5,5.5,0,0,0-5.12,4.27l-18.13,88c-0.61,3,1,5.39,3.68,5.39h21.67c2.65,0,5.2-2.42,5.7-5.39l14.88-88A3.5,3.5,0,0,0,150.19,9.94Z" transform="translate(0.81 0.5)"/><path class="cls-4" d="M244.14,9.05h-83a4.7,4.7,0,0,0-4.46,3.85L142,102.07c-0.44,2.68,1.13,4.87,3.52,4.87h93.84a4.88,4.88,0,0,0,4.54-4.87l3.93-89.17A3.64,3.64,0,0,0,244.14,9.05Z" transform="translate(0.81 0.5)"/><path class="cls-4" d="M308.49,8.17H254.24a3.9,3.9,0,0,0-3.86,3.73l-3.68,90.32a4.28,4.28,0,0,0,4,4.73h61.44a4.27,4.27,0,0,0,4-4.73l-3.79-90.32A3.91,3.91,0,0,0,308.49,8.17Z" transform="translate(0.81 0.5)"/><path class="cls-4" d="M368.79,8.17H319.45a3.91,3.91,0,0,0-3.93,4.14l4.12,89.37c0.13,2.89,2.33,5.25,4.91,5.25h55.87c2.58,0,4.38-2.36,4-5.25l-11-89.37A4.81,4.81,0,0,0,368.79,8.17Z" transform="translate(0.81 0.5)"/><path class="cls-4" d="M467,8.17H379.79A3.3,3.3,0,0,0,376.45,12l11.47,90c0.34,2.69,2.56,4.88,5,4.88h98.79c2.39,0,3.78-2.19,3.09-4.88L471.84,12A5.27,5.27,0,0,0,467,8.17Z" transform="translate(0.81 0.5)"/><path class="cls-4" d="M114.9,138.28H60.46a6.28,6.28,0,0,0-5.7,3.64L29,197.4a3.56,3.56,0,0,0,3.23,5.05H90.1a7.84,7.84,0,0,0,7.32-5l20.85-54.24A3.61,3.61,0,0,0,114.9,138.28Z" transform="translate(0.81 0.5)"/><polygon class="cls-8" points="60.05 190.73 71.81 155.82 65.15 157.21 58.33 167.61 55.92 182.41 57.71 190.73 60.05 190.73"/><path class="cls-9" d="M70,155.32s0.8,0.06.45,0.2c-2.84,1.15-15.49,7.84-11.21,34.71H51s-2.84-28.94,11.05-34.91H70Z" transform="translate(0.81 0.5)"/><polygon class="cls-8" points="83.04 190.73 94.32 155.82 87.94 157.21 81.39 167.61 79.08 182.41 80.79 190.73 83.04 190.73"/><path class="cls-9" d="M92.56,155.32s0.77,0.06.43,0.2c-2.72,1.15-14.86,7.84-10.75,34.71h-8s-2.73-28.94,10.61-34.91h7.71Z" transform="translate(0.81 0.5)"/><line class="cls-4" x1="334.17" y1="48.4" x2="334.17" y2="54.42"/><line class="cls-4" x1="334.17" y1="57.82" x2="334.17" y2="63.84"/><line class="cls-4" x1="321.74" y1="56.2" x2="331.43" y2="56.2"/><line class="cls-4" x1="336.9" y1="56.2" x2="346.59" y2="56.2"/><line class="cls-4" x1="342.93" y1="50.56" x2="336.08" y2="54.81"/><line class="cls-4" x1="332.21" y1="57.22" x2="325.36" y2="61.48"/><line class="cls-4" x1="325.27" y1="50.61" x2="332.12" y2="54.87"/><line class="cls-4" x1="335.99" y1="57.27" x2="342.84" y2="61.53"/><line class="cls-4" x1="362.84" y1="29" x2="362.84" y2="35.02"/><line class="cls-4" x1="362.84" y1="38.42" x2="362.84" y2="44.44"/><line class="cls-4" x1="350.41" y1="36.8" x2="360.1" y2="36.8"/><line class="cls-4" x1="365.57" y1="36.8" x2="375.26" y2="36.8"/><line class="cls-4" x1="371.6" y1="31.16" x2="364.75" y2="35.41"/><line class="cls-4" x1="360.88" y1="37.82" x2="354.03" y2="42.08"/><line class="cls-4" x1="353.94" y1="31.21" x2="360.79" y2="35.47"/><line class="cls-4" x1="364.66" y1="37.87" x2="371.51" y2="42.13"/><line class="cls-4" x1="366.27" y1="71.74" x2="366.27" y2="77.76"/><line class="cls-4" x1="366.27" y1="81.16" x2="366.27" y2="87.18"/><line class="cls-4" x1="353.85" y1="79.54" x2="363.54" y2="79.54"/><line class="cls-4" x1="369.01" y1="79.54" x2="378.7" y2="79.54"/><line class="cls-4" x1="375.04" y1="73.9" x2="368.18" y2="78.15"/><line class="cls-4" x1="364.31" y1="80.56" x2="357.46" y2="84.82"/><line class="cls-4" x1="357.37" y1="73.95" x2="364.22" y2="78.21"/><line class="cls-4" x1="368.09" y1="80.62" x2="374.94" y2="84.87"/><line class="cls-4" x1="402.59" y1="71.53" x2="402.59" y2="77.55"/><line class="cls-4" x1="402.59" y1="80.95" x2="402.59" y2="86.97"/><line class="cls-4" x1="390.16" y1="79.33" x2="399.85" y2="79.33"/><line class="cls-4" x1="405.32" y1="79.33" x2="415.01" y2="79.33"/><line class="cls-4" x1="411.35" y1="73.69" x2="404.5" y2="77.95"/><line class="cls-4" x1="400.63" y1="80.35" x2="393.78" y2="84.61"/><line class="cls-4" x1="393.69" y1="73.75" x2="400.54" y2="78.01"/><line class="cls-4" x1="404.41" y1="80.41" x2="411.26" y2="84.67"/><line class="cls-4" x1="437.9" y1="71.82" x2="437.9" y2="77.84"/><line class="cls-4" x1="437.9" y1="81.24" x2="437.9" y2="87.26"/><line class="cls-4" x1="425.48" y1="79.62" x2="435.17" y2="79.62"/><line class="cls-4" x1="440.64" y1="79.62" x2="450.33" y2="79.62"/><line class="cls-4" x1="446.67" y1="73.98" x2="439.82" y2="78.23"/><line class="cls-4" x1="435.95" y1="80.64" x2="429.09" y2="84.9"/><line class="cls-4" x1="429" y1="74.03" x2="435.85" y2="78.29"/><line class="cls-4" x1="439.72" y1="80.7" x2="446.58" y2="84.95"/><line class="cls-4" x1="471.43" y1="71.9" x2="471.43" y2="77.92"/><line class="cls-4" x1="471.43" y1="81.32" x2="471.43" y2="87.34"/><line class="cls-4" x1="459" y1="79.7" x2="468.69" y2="79.7"/><line class="cls-4" x1="474.17" y1="79.7" x2="483.86" y2="79.7"/><line class="cls-4" x1="480.19" y1="74.06" x2="473.34" y2="78.31"/><line class="cls-4" x1="469.47" y1="80.72" x2="462.62" y2="84.98"/><line class="cls-4" x1="462.53" y1="74.11" x2="469.38" y2="78.37"/><line class="cls-4" x1="473.25" y1="80.78" x2="480.1" y2="85.03"/><line class="cls-4" x1="462.53" y1="29.08" x2="462.53" y2="35.1"/><line class="cls-4" x1="462.53" y1="38.5" x2="462.53" y2="44.52"/><line class="cls-4" x1="450.1" y1="36.88" x2="459.79" y2="36.88"/><line class="cls-4" x1="465.27" y1="36.88" x2="474.96" y2="36.88"/><line class="cls-4" x1="471.29" y1="31.24" x2="464.44" y2="35.49"/><line class="cls-4" x1="460.57" y1="37.9" x2="453.72" y2="42.16"/><line class="cls-4" x1="453.63" y1="31.29" x2="460.48" y2="35.55"/><line class="cls-4" x1="464.35" y1="37.96" x2="471.2" y2="42.21"/><line class="cls-4" x1="430.32" y1="29.08" x2="430.32" y2="35.1"/><line class="cls-4" x1="430.32" y1="38.5" x2="430.32" y2="44.52"/><line class="cls-4" x1="417.9" y1="36.88" x2="427.59" y2="36.88"/><line class="cls-4" x1="433.06" y1="36.88" x2="442.75" y2="36.88"/><line class="cls-4" x1="439.09" y1="31.24" x2="432.23" y2="35.49"/><line class="cls-4" x1="428.36" y1="37.9" x2="421.51" y2="42.16"/><line class="cls-4" x1="421.42" y1="31.29" x2="428.27" y2="35.55"/><line class="cls-4" x1="432.14" y1="37.96" x2="438.99" y2="42.21"/><line class="cls-4" x1="396.68" y1="29.08" x2="396.68" y2="35.1"/><line class="cls-4" x1="396.68" y1="38.5" x2="396.68" y2="44.52"/><line class="cls-4" x1="384.25" y1="36.88" x2="393.94" y2="36.88"/><line class="cls-4" x1="399.41" y1="36.88" x2="409.1" y2="36.88"/><line class="cls-4" x1="405.44" y1="31.24" x2="398.59" y2="35.49"/><line class="cls-4" x1="394.72" y1="37.9" x2="387.87" y2="42.16"/><line class="cls-4" x1="387.78" y1="31.29" x2="394.63" y2="35.55"/><line class="cls-4" x1="398.5" y1="37.96" x2="405.35" y2="42.21"/><line class="cls-4" x1="264.65" y1="72.89" x2="264.65" y2="78.91"/><line class="cls-4" x1="264.65" y1="82.32" x2="264.65" y2="88.34"/><line class="cls-4" x1="252.23" y1="80.7" x2="261.92" y2="80.7"/><line class="cls-4" x1="267.39" y1="80.7" x2="277.08" y2="80.7"/><line class="cls-4" x1="273.42" y1="75.05" x2="266.57" y2="79.31"/><line class="cls-4" x1="262.7" y1="81.72" x2="255.85" y2="85.97"/><line class="cls-4" x1="255.75" y1="75.11" x2="262.61" y2="79.37"/><line class="cls-4" x1="266.48" y1="81.77" x2="273.33" y2="86.03"/><line class="cls-4" x1="294.43" y1="48.4" x2="294.43" y2="54.42"/><line class="cls-4" x1="294.43" y1="57.82" x2="294.43" y2="63.84"/><line class="cls-4" x1="282" y1="56.2" x2="291.69" y2="56.2"/><line class="cls-4" x1="297.17" y1="56.2" x2="306.86" y2="56.2"/><line class="cls-4" x1="303.2" y1="50.56" x2="296.34" y2="54.81"/><line class="cls-4" x1="292.47" y1="57.22" x2="285.62" y2="61.48"/><line class="cls-4" x1="285.53" y1="50.61" x2="292.38" y2="54.87"/><line class="cls-4" x1="296.25" y1="57.27" x2="303.1" y2="61.53"/><line class="cls-4" x1="264.67" y1="30.1" x2="264.67" y2="36.12"/><line class="cls-4" x1="264.67" y1="39.52" x2="264.67" y2="45.54"/><line class="cls-4" x1="252.24" y1="37.9" x2="261.93" y2="37.9"/><line class="cls-4" x1="267.41" y1="37.9" x2="277.1" y2="37.9"/><line class="cls-4" x1="273.43" y1="32.26" x2="266.58" y2="36.51"/><line class="cls-4" x1="262.71" y1="38.92" x2="255.86" y2="43.18"/><line class="cls-4" x1="255.77" y1="32.31" x2="262.62" y2="36.57"/><line class="cls-4" x1="266.49" y1="38.97" x2="273.34" y2="43.23"/><line class="cls-4" x1="195.65" y1="72.84" x2="195.65" y2="78.86"/><line class="cls-4" x1="195.65" y1="82.26" x2="195.65" y2="88.28"/><line class="cls-4" x1="183.23" y1="80.64" x2="192.92" y2="80.64"/><line class="cls-4" x1="198.39" y1="80.64" x2="208.08" y2="80.64"/><line class="cls-4" x1="204.42" y1="75" x2="197.57" y2="79.25"/><line class="cls-4" x1="193.7" y1="81.66" x2="186.85" y2="85.92"/><line class="cls-4" x1="186.75" y1="75.05" x2="193.61" y2="79.31"/><line class="cls-4" x1="197.48" y1="81.72" x2="204.33" y2="85.97"/><line class="cls-4" x1="137.42" y1="28.79" x2="137.42" y2="34.81"/><line class="cls-4" x1="137.42" y1="38.21" x2="137.42" y2="44.23"/><line class="cls-4" x1="124.99" y1="36.59" x2="134.68" y2="36.59"/><line class="cls-4" x1="140.16" y1="36.59" x2="149.85" y2="36.59"/><line class="cls-4" x1="146.18" y1="30.95" x2="139.33" y2="35.21"/><line class="cls-4" x1="135.46" y1="37.61" x2="128.61" y2="41.87"/><line class="cls-4" x1="128.52" y1="31.01" x2="135.37" y2="35.27"/><line class="cls-4" x1="139.24" y1="37.67" x2="146.09" y2="41.93"/><line class="cls-4" x1="101.48" y1="28.4" x2="101.48" y2="34.42"/><line class="cls-4" x1="101.48" y1="37.82" x2="101.48" y2="43.84"/><line class="cls-4" x1="89.05" y1="36.2" x2="98.74" y2="36.2"/><line class="cls-4" x1="104.21" y1="36.2" x2="113.9" y2="36.2"/><line class="cls-4" x1="110.24" y1="30.56" x2="103.39" y2="34.81"/><line class="cls-4" x1="99.52" y1="37.22" x2="92.67" y2="41.47"/><line class="cls-4" x1="92.58" y1="30.61" x2="99.43" y2="34.87"/><line class="cls-4" x1="103.3" y1="37.27" x2="110.15" y2="41.53"/><line class="cls-4" x1="91.17" y1="72.92" x2="91.17" y2="78.94"/><line class="cls-4" x1="91.17" y1="82.34" x2="91.17" y2="88.36"/><line class="cls-4" x1="78.74" y1="80.72" x2="88.43" y2="80.72"/><line class="cls-4" x1="93.9" y1="80.72" x2="103.59" y2="80.72"/><line class="cls-4" x1="99.93" y1="75.08" x2="93.08" y2="79.33"/><line class="cls-4" x1="89.21" y1="81.74" x2="82.36" y2="86"/><line class="cls-4" x1="82.27" y1="75.13" x2="89.12" y2="79.39"/><line class="cls-4" x1="92.99" y1="81.8" x2="99.84" y2="86.05"/><path class="cls-10" d="M287,44.95l0.46,9.58c0.08,1.74,3,3.31,6.52,3.52s6.35-1,6.33-2.76l-0.11-9.56Z" transform="translate(0.81 0.5)"/><path class="cls-10" d="M326.77,46l0,9.52c0,1.73,2.84,3.12,6.36,3.12s6.43-1.39,6.5-3.12L340,46H326.77Z" transform="translate(0.81 0.5)"/><path class="cls-10" d="M257.3,69.23l0.07,10c0,1.86,2.94,3.37,6.54,3.37s6.51-1.51,6.51-3.37l0-10H257.3Z" transform="translate(0.81 0.5)"/><path class="cls-10" d="M187.95,69.23l0.28,10c0.05,1.86,3,3.37,6.61,3.37s6.48-1.51,6.44-3.37l-0.24-10H187.95Z" transform="translate(0.81 0.5)"/><path class="cls-10" d="M83.54,69.23l0.59,10c0.11,1.86,3.12,3.37,6.72,3.37s6.43-1.51,6.33-3.37l-0.55-10H83.54Z" transform="translate(0.81 0.5)"/><path class="cls-10" d="M94.39,26L95,35.15c0.12,1.72,3,3.11,6.47,3.11s6.17-1.39,6.05-3.11L107,26H94.39Z" transform="translate(0.81 0.5)"/><path class="cls-10" d="M130.33,26l0.52,9.17c0.1,1.72,3,3.11,6.43,3.11s6.18-1.39,6.09-3.11L142.9,26H130.33Z" transform="translate(0.81 0.5)"/><path class="cls-10" d="M258.26,27.45l0.08,9.16c0,1.71,2.82,3.1,6.28,3.1s6.25-1.39,6.24-3.1l0-9.16H258.26Z" transform="translate(0.81 0.5)"/><path class="cls-10" d="M359,68.13l-0.23,10c0,1.87,2.84,3.38,6.44,3.38s6.56-1.51,6.61-3.38l0.27-10H359Z" transform="translate(0.81 0.5)"/><path class="cls-10" d="M355.88,26.44l-0.25,9.17c0,1.72,2.72,3.11,6.17,3.11s6.3-1.39,6.35-3.11l0.29-9.17H355.88Z" transform="translate(0.81 0.5)"/><path class="cls-10" d="M395.41,68.13l-0.34,10c-0.06,1.87,2.8,3.38,6.4,3.38S408,80,408.12,78.1l0.38-10H395.41Z" transform="translate(0.81 0.5)"/><path class="cls-10" d="M389.77,26.44l-0.37,9.17c-0.07,1.72,2.68,3.11,6.13,3.11s6.32-1.39,6.39-3.11l0.41-9.17H389.77Z" transform="translate(0.81 0.5)"/><path class="cls-10" d="M430.87,68.13l-0.45,10c-0.08,1.87,2.77,3.38,6.37,3.38s6.59-1.51,6.69-3.38l0.49-10H430.87Z" transform="translate(0.81 0.5)"/><path class="cls-10" d="M423.81,26.44l-0.48,9.17c-0.09,1.72,2.64,3.11,6.09,3.11s6.33-1.39,6.43-3.11l0.52-9.17H423.81Z" transform="translate(0.81 0.5)"/><path class="cls-10" d="M464.35,68.13l-0.55,10c-0.1,1.87,2.73,3.38,6.33,3.38s6.61-1.51,6.72-3.38l0.59-10H464.35Z" transform="translate(0.81 0.5)"/><path class="cls-10" d="M455.93,26.44l-0.59,9.17c-0.11,1.72,2.6,3.11,6.05,3.11s6.35-1.39,6.47-3.11l0.63-9.17H455.93Z" transform="translate(0.81 0.5)"/><path class="cls-6" d="M300.23,45.73c0,1.84-2.89,3.14-6.5,2.92s-6.61-1.86-6.7-3.7,2.82-3.2,6.5-3S300.21,43.88,300.23,45.73Z" transform="translate(0.81 0.5)"/><path class="cls-6" d="M340,46c-0.07,1.83-3.06,3.3-6.68,3.3s-6.54-1.47-6.54-3.3,3-3.36,6.68-3.36S340.06,44.13,340,46Z" transform="translate(0.81 0.5)"/><path class="cls-6" d="M270.39,69.23c0,1.88-2.92,3.39-6.53,3.39s-6.55-1.52-6.56-3.39,2.91-3.4,6.53-3.4S270.39,67.35,270.39,69.23Z" transform="translate(0.81 0.5)"/><path class="cls-6" d="M201,69.23c0,1.88-2.85,3.39-6.46,3.39s-6.58-1.52-6.63-3.39,2.84-3.4,6.46-3.4S201,67.35,201,69.23Z" transform="translate(0.81 0.5)"/><path class="cls-6" d="M96.63,69.23c0.1,1.88-2.74,3.39-6.35,3.39s-6.63-1.52-6.74-3.39,2.73-3.4,6.35-3.4S96.53,67.35,96.63,69.23Z" transform="translate(0.81 0.5)"/><path class="cls-6" d="M107,26c0.11,1.73-2.61,3.13-6.07,3.13s-6.37-1.4-6.49-3.13,2.6-3.13,6.07-3.13S106.84,24.25,107,26Z" transform="translate(0.81 0.5)"/><path class="cls-6" d="M142.9,26c0.09,1.73-2.65,3.13-6.11,3.13s-6.35-1.4-6.45-3.13,2.64-3.13,6.11-3.13S142.81,24.25,142.9,26Z" transform="translate(0.81 0.5)"/><path class="cls-6" d="M270.82,27.45c0,1.73-2.8,3.12-6.26,3.12s-6.28-1.4-6.3-3.12,2.79-3.13,6.26-3.13S270.81,25.72,270.82,27.45Z" transform="translate(0.81 0.5)"/><path class="cls-6" d="M372.13,68.13c-0.05,1.88-3,3.4-6.63,3.4S359,70,359,68.13s3-3.4,6.63-3.4S372.18,66.25,372.13,68.13Z" transform="translate(0.81 0.5)"/><path class="cls-6" d="M368.44,26.44c-0.05,1.73-2.91,3.13-6.37,3.13s-6.24-1.4-6.19-3.13,2.9-3.13,6.37-3.13S368.49,24.71,368.44,26.44Z" transform="translate(0.81 0.5)"/><path class="cls-6" d="M408.5,68.13c-0.07,1.88-3.06,3.4-6.67,3.4s-6.49-1.52-6.42-3.4,3.05-3.4,6.67-3.4S408.57,66.25,408.5,68.13Z" transform="translate(0.81 0.5)"/><path class="cls-6" d="M402.34,26.44c-0.08,1.73-2.95,3.13-6.41,3.13s-6.22-1.4-6.15-3.13,2.94-3.13,6.41-3.13S402.41,24.71,402.34,26.44Z" transform="translate(0.81 0.5)"/><path class="cls-6" d="M444,68.13c-0.09,1.88-3.09,3.4-6.71,3.4s-6.47-1.52-6.39-3.4,3.09-3.4,6.71-3.4S444.06,66.25,444,68.13Z" transform="translate(0.81 0.5)"/><path class="cls-6" d="M436.37,26.44c-0.1,1.73-3,3.13-6.45,3.13s-6.2-1.4-6.11-3.13,3-3.13,6.45-3.13S436.47,24.71,436.37,26.44Z" transform="translate(0.81 0.5)"/><path class="cls-6" d="M477.45,68.13c-0.11,1.88-3.13,3.4-6.74,3.4s-6.46-1.52-6.35-3.4,3.12-3.4,6.74-3.4S477.56,66.25,477.45,68.13Z" transform="translate(0.81 0.5)"/><path class="cls-6" d="M468.5,26.44c-0.12,1.73-3,3.13-6.49,3.13s-6.18-1.4-6.07-3.13,3-3.13,6.49-3.13S468.62,24.71,468.5,26.44Z" transform="translate(0.81 0.5)"/><line class="cls-4" x1="382.64" y1="54.75" x2="483.38" y2="54.75"/><line class="cls-4" x1="246.77" y1="54.75" x2="150.67" y2="54.75"/><rect class="cls-11" x="143.48" y="46.41" width="11.02" height="13.55"/><rect class="cls-11" x="310.79" y="23.36" width="11.02" height="14.86"/><rect class="cls-11" x="311.45" y="65.69" width="11.02" height="14.86"/><polygon class="cls-12" points="317.75 68.04 314.63 68.04 306.41 71.61 306.51 78.46 326.46 78.46 326.17 71.61 317.75 68.04"/><polygon class="cls-3" points="317.98 74.43 314.8 74.43 314.63 68.04 317.78 68.04 317.98 74.43"/><line class="cls-4" x1="314.8" y1="74.43" x2="306.51" y2="78.46"/><line class="cls-4" x1="317.97" y1="74.43" x2="326.46" y2="78.46"/><polygon class="cls-12" points="229.91 69.04 226.79 69.04 218.18 72.61 217.55 79.46 237.49 79.46 237.94 72.61 229.91 69.04"/><polygon class="cls-3" points="229.44 75.43 226.27 75.43 226.79 69.04 229.94 69.04 229.44 75.43"/><line class="cls-4" x1="226.27" y1="75.43" x2="217.55" y2="79.46"/><line class="cls-4" x1="229.45" y1="75.43" x2="237.49" y2="79.46"/><polygon class="cls-12" points="233.14 26.15 230.19 26.15 222.09 29.33 221.52 35.43 240.34 35.43 240.74 29.33 233.14 26.15"/><polygon class="cls-3" points="232.73 31.84 229.73 31.84 230.19 26.15 233.17 26.15 232.73 31.84"/><line class="cls-4" x1="229.73" y1="31.84" x2="221.52" y2="35.43"/><line class="cls-4" x1="232.73" y1="31.84" x2="240.34" y2="35.43"/><polygon class="cls-12" points="203.45 26.15 200.5 26.15 192.28 29.33 191.48 35.43 210.3 35.43 210.93 29.33 203.45 26.15"/><polygon class="cls-3" points="202.82 31.84 199.83 31.84 200.5 26.15 203.48 26.15 202.82 31.84"/><line class="cls-4" x1="199.83" y1="31.84" x2="191.48" y2="35.43"/><line class="cls-4" x1="202.82" y1="31.84" x2="210.3" y2="35.43"/><polygon class="cls-12" points="173.59 26.15 170.65 26.15 162.27 29.33 161.2 35.43 180.01 35.43 180.93 29.33 173.59 26.15"/><polygon class="cls-3" points="172.7 31.84 169.71 31.84 170.65 26.15 173.62 26.15 172.7 31.84"/><line class="cls-4" x1="169.7" y1="31.84" x2="161.2" y2="35.43"/><line class="cls-4" x1="172.7" y1="31.84" x2="180.01" y2="35.43"/><polygon class="cls-12" points="169.82 69.19 166.7 69.19 157.79 72.76 156.58 79.61 176.53 79.61 177.56 72.76 169.82 69.19"/><polygon class="cls-3" points="168.82 75.58 165.64 75.58 166.7 69.19 169.85 69.19 168.82 75.58"/><line class="cls-4" x1="165.64" y1="75.58" x2="156.58" y2="79.61"/><line class="cls-4" x1="168.82" y1="75.58" x2="176.53" y2="79.61"/><polygon class="cls-12" points="132.06 68.19 128.94 68.19 119.86 71.76 118.32 78.61 138.27 78.61 139.63 71.76 132.06 68.19"/><polygon class="cls-3" points="130.75 74.58 127.58 74.58 128.94 68.19 132.1 68.19 130.75 74.58"/><line class="cls-4" x1="127.58" y1="74.58" x2="118.32" y2="78.61"/><line class="cls-4" x1="130.75" y1="74.58" x2="138.27" y2="78.61"/><polygon class="cls-12" points="152.58 47.98 149.55 47.98 140.82 51.35 139.5 57.82 158.88 57.82 160.02 51.35 152.58 47.98"/><polygon class="cls-3" points="151.47 54.01 148.39 54.01 149.55 47.98 152.61 47.98 151.47 54.01"/><line class="cls-4" x1="148.39" y1="54.01" x2="139.5" y2="57.82"/><line class="cls-4" x1="151.47" y1="54.01" x2="158.88" y2="57.82"/><polygon class="cls-12" points="316.47 26.15 313.52 26.15 305.76 29.33 305.85 35.43 324.67 35.43 324.42 29.33 316.47 26.15"/><polygon class="cls-3" points="316.67 31.84 313.68 31.84 313.52 26.15 316.5 26.15 316.67 31.84"/><line class="cls-4" x1="313.68" y1="31.84" x2="305.85" y2="35.43"/><line class="cls-4" x1="316.67" y1="31.84" x2="324.67" y2="35.43"/><polygon class="cls-12" points="447.01 48.2 443.98 48.2 436.62 51.56 437.9 58.02 457.26 58.02 455.8 51.56 447.01 48.2"/><polygon class="cls-3" points="448.33 54.22 445.25 54.22 443.98 48.2 447.04 48.2 448.33 54.22"/><line class="cls-4" x1="445.25" y1="54.22" x2="437.9" y2="58.02"/><line class="cls-4" x1="448.33" y1="54.22" x2="457.26" y2="58.02"/><line class="cls-4" x1="98.74" y1="23.61" x2="101.48" y2="26.47"/><line class="cls-4" x1="92.99" y1="66.54" x2="90.89" y2="69.72"/><line class="cls-4" x1="136.81" y1="23.35" x2="137.42" y2="26.47"/><line class="cls-4" x1="200.24" y1="71.98" x2="195.3" y2="69.72"/><line class="cls-4" x1="268.11" y1="25.14" x2="265.34" y2="27.94"/><line class="cls-4" x1="258.11" y1="69.73" x2="264.65" y2="69.72"/><line class="cls-4" x1="290.27" y1="42.94" x2="294.43" y2="45.81"/><line class="cls-4" x1="336.9" y1="49.47" x2="334.18" y2="46.45"/><line class="cls-4" x1="360.1" y1="29.74" x2="362.96" y2="26.94"/><line class="cls-4" x1="366.48" y1="65.23" x2="366.39" y2="68.63"/><line class="cls-4" x1="393.69" y1="24.27" x2="396.86" y2="26.94"/><line class="cls-4" x1="434.85" y1="24.46" x2="430.89" y2="26.94"/><line class="cls-4" x1="407.83" y1="70.72" x2="402.76" y2="68.63"/><line class="cls-4" x1="438.99" y1="65.24" x2="438.22" y2="68.63"/><line class="cls-4" x1="468.69" y1="65.65" x2="471.71" y2="68.63"/><line class="cls-4" x1="458.69" y1="29.08" x2="463.02" y2="26.94"/><polygon class="cls-13" points="83.28 170.54 76.2 170.54 76.55 169.05 83.67 169.05 83.28 170.54"/><polygon class="cls-13" points="60.49 169.79 53.18 169.79 53.58 168.31 60.94 168.31 60.49 169.79"/><line class="cls-4" x1="88.81" y1="0.5" x2="89.7" y2="5.17"/><line class="cls-4" x1="472.81" y1="0.55" x2="471.95" y2="5.17"/><text class="cls-14" transform="matrix(1.33, 0, -0.41, 0.91, 98.11, 16.63)">MOD</text><text class="cls-15" transform="matrix(1.41, 0, -0.18, 0.98, 177.24, 15.91)">OSCILLATOR 1</text><text class="cls-16" transform="matrix(1.31, 0, -0.21, 0.98, 167.11, 102.84)">OSCILLATOR 2</text><text class="cls-17" transform="matrix(1.33, 0, -0.1, 0.99, 270.44, 16.26)">MIXER</text><text class="cls-18" transform="translate(333.46 16.4) scale(1.33 1)">FILTER</text><text class="cls-19" transform="matrix(1.32, 0, 0.16, 0.99, 395.27, 16.52)">FILTER CONTOUR</text><text class="cls-20" transform="matrix(1.31, 0, 0.18, 0.98, 405.26, 101.85)">LOUDNESS CONTOUR</text><text class="cls-21" transform="matrix(0.88, 0, -0.44, 0.9, 59.58, 146.66)">PERFORMANCE<tspan x="11.41" y="4.55">CONTROL</tspan></text></svg>