<svg id="Ebene_1" data-name="Ebene 1" xmlns="http://www.w3.org/2000/svg" viewBox="0 0 474.1 217.16"><defs><style>.cls-1{fill:#3c3c3b;}.cls-1,.cls-2,.cls-3,.cls-4,.cls-5,.cls-6{stroke:#1d1d1b;stroke-miterlimit:10;}.cls-2{fill:none;}.cls-3{fill:#6f6f6e;}.cls-4{fill:#fff;}.cls-5{fill:#b1b1b1;}.cls-6{fill:#575756;}</style></defs><title>synth_overlay</title><polygon class="cls-1" points="427.21 120 237.05 120 46.88 120 43.81 209.18 76.94 209.18 87.57 214.46 237.05 214.46 386.52 214.46 397.16 209.18 430.28 209.18 427.21 120"/><line class="cls-2" x1="404.36" y1="209.18" x2="403.78" y2="205.54"/><polygon class="cls-3" points="403.85 120 429.32 120 429.99 205.49 403.78 205.53 403.85 120"/><polygon class="cls-4" points="453.63 16.74 455.69 11.52 473.47 11.52 447.45 128.8 447.39 206.18 432.62 206.18 432.81 128.97 453.63 16.74"/><polygon class="cls-5" points="446.15 207.18 429.57 216.66 414.71 216.66 430.49 207.13 446.15 207.18"/><polygon class="cls-1" points="430.19 207.04 429.14 120.03 432.84 116.28 453.63 16.74 432.81 128.97 432.62 207.04 430.19 207.04"/><line class="cls-4" x1="432.81" y1="128.98" x2="447.45" y2="128.8"/><line class="cls-1" x1="403.82" y1="205.05" x2="403.61" y2="207.04"/><line class="cls-1" x1="393.98" y1="210.03" x2="393.32" y2="212.32"/><line class="cls-2" x1="69.74" y1="209.18" x2="70.31" y2="205.54"/><polygon class="cls-3" points="70.24 120 44.77 120 44.1 205.49 70.31 205.53 70.24 120"/><polygon class="cls-4" points="20.46 16.74 18.41 11.52 0.62 11.52 26.65 128.8 26.71 206.18 41.47 206.18 41.29 128.97 20.46 16.74"/><polygon class="cls-5" points="27.94 207.18 44.52 216.66 59.39 216.66 43.61 207.13 27.94 207.18"/><polygon class="cls-1" points="43.9 207.04 44.95 120.03 41.25 116.28 20.46 16.74 41.29 128.97 41.47 207.04 43.9 207.04"/><polygon class="cls-5" points="403.61 207.04 393.32 212.32 237.05 212.32 80.77 212.32 70.48 207.04 45.2 207.04 60.72 216.66 237.05 216.66 413.37 216.66 428.89 207.04 403.61 207.04"/><polygon class="cls-4" points="403.82 205.05 393.98 210.03 237.05 210.03 80.11 210.03 70.28 205.05 44.1 205.02 44.2 207.04 70.48 207.04 80.77 212.32 237.05 212.32 393.32 212.32 403.61 207.04 429.89 207.04 429.99 205.02 403.82 205.05"/><polygon class="cls-6" points="237.05 116.25 41.28 116.25 44.98 120 237.05 120 429.11 120 432.81 116.25 237.05 116.25"/><line class="cls-4" x1="41.29" y1="128.98" x2="26.65" y2="128.8"/><line class="cls-1" x1="70.27" y1="205.05" x2="70.49" y2="207.04"/><line class="cls-1" x1="80.11" y1="210.03" x2="80.77" y2="212.32"/><line class="cls-1" x1="403.61" y1="207.04" x2="403.82" y2="205.05"/><line class="cls-1" x1="393.32" y1="212.32" x2="393.98" y2="210.03"/><polygon class="cls-3" points="432.45 116.13 41.41 116.13 18.41 11.52 455.45 11.52 432.45 116.13"/><rect class="cls-6" x="0.62" y="0.5" width="472.85" height="11.02"/></svg>