<svg id="Ebene_1" data-name="Ebene 1" xmlns="http://www.w3.org/2000/svg" viewBox="0 0 45.73 88.58"><defs><style>.cls-1{fill:none;}.cls-1,.cls-2,.cls-3,.cls-4,.cls-5{stroke:#1d1d1b;stroke-miterlimit:10;}.cls-2{fill:#b1b1b1;}.cls-3{fill:#fff;}.cls-4{fill:#6f6f6e;}.cls-5{fill:#3c3c3b;}</style></defs><title>synth_right</title><line class="cls-1" x1="44.34" y1="80.34" x2="44.92" y2="76.69"/><polygon class="cls-2" points="1.99 78.34 18.79 87.81 33.85 87.81 17.86 78.29 1.99 78.34"/><polygon class="cls-3" points="44.94 76.31 44.72 76.2 18.36 76.18 18.47 78.2 44.94 78.2 44.94 78.2 44.94 76.31"/><polygon class="cls-2" points="44.92 78.2 19.48 78.2 35.2 87.81 44.92 87.81 44.92 78.2"/><polygon class="cls-4" points="18.97 0.76 18.36 76.65 44.92 76.69 44.86 0.76 18.97 0.76"/><polygon class="cls-3" points="0.68 0.76 0.74 77.34 15.7 77.34 15.51 0.76 0.68 0.76"/><polygon class="cls-5" points="15.49 0.76 15.51 0.85 15.7 78.2 18.16 78.2 19.12 0.76 15.49 0.76"/></svg>